<svg id="图层_1" data-name="图层 1" xmlns="http://www.w3.org/2000/svg" viewBox="0 0 100 70"><defs><style>.cls-1{fill:#666;}.cls-2{fill:#3169f6;}.cls-3{fill:#fff;}</style></defs><title>icon</title><path class="cls-1" d="M25.14,70A24.45,24.45,0,0,1,.5,45.41v-.48A24.79,24.79,0,0,1,23.72,20.34,28,28,0,0,1,50.74,0a28.62,28.62,0,0,1,27,19.39A24.75,24.75,0,0,1,100.5,44v.47A24.44,24.44,0,0,1,75.86,69.05Zm0-43a18,18,0,0,0-18,18v.48a18,18,0,0,0,18,18l50.24-.47a18,18,0,0,0,18-18v-.47a18,18,0,0,0-18-18H72.06l-.47-2.84c-2.37-9.93-10.9-17-20.85-17a21.84,21.84,0,0,0-21.33,17.5L28.94,27Zm0,0"/><path class="cls-2" d="M66.38,28.85a16.78,16.78,0,0,0-16.12-12.3A16.23,16.23,0,0,0,34.62,29.32h-.47A13.74,13.74,0,0,0,20.41,43v.47A13.74,13.74,0,0,0,34.15,57.23c10.43,0,21.33-.47,31.75-.47A13.74,13.74,0,0,0,79.65,43v-.47c0-7.57-6.16-13.72-13.27-13.72Zm0,0"/><path class="cls-3" d="M59.74,34.75l-7-6.37-.15-.13a3.34,3.34,0,0,0-4.26,0l-7.59,6.09a2.33,2.33,0,0,0,0,3.66,3.36,3.36,0,0,0,4.27,0l1.89-1.52L46.47,57.9a3,3,0,0,0,3.32,2.85,3,3,0,0,0,3.32-2.85l.46-21.23,1.91,1.74a3,3,0,0,0,4.26,0A2.32,2.32,0,0,0,59.74,34.75Z"/></svg>