<svg id="图层_1" data-name="图层 1" xmlns="http://www.w3.org/2000/svg" viewBox="0 0 608 478"><defs><style>.cls-1{fill:#efefef;}.cls-2{fill:#fff;}.cls-3{fill:#dfeff7;}.cls-4{fill:#7ecafc;}.cls-5{fill:#c7e6f9;}.cls-6{fill:#c9c9c9;}.cls-7{fill:none;}.cls-8{fill:#b1ddfc;}.cls-9{fill:#ccc;}</style></defs><title>icon</title><ellipse class="cls-1" cx="295.09" cy="238.5" rx="237.01" ry="238.11"/><rect class="cls-2" x="50.17" y="72.47" width="87.08" height="29.83" rx="14.87"/><rect class="cls-2" x="460.85" y="307.6" width="87.08" height="31.9" rx="15.37"/><rect class="cls-2" x="18.51" y="122.68" width="118.75" height="34.8" rx="17.35"/><rect class="cls-2" x="463.82" y="244.96" width="118.75" height="34.8" rx="17.35"/><path class="cls-1" d="M37.4,157.47h99.86a0,0,0,0,1,0,0v37.78a0,0,0,0,1,0,0H37.4a18.89,18.89,0,0,1-18.89-18.89v0A18.89,18.89,0,0,1,37.4,157.47Z"/><rect class="cls-1" x="456.89" y="211.16" width="118.75" height="34.8" rx="17.35"/><path class="cls-1" d="M72.49,100.8h97.32a10,10,0,0,1,10,10v2.87a10,10,0,0,1-10,10H72.49a11.43,11.43,0,0,1-11.43-11.43v0A11.43,11.43,0,0,1,72.49,100.8Z"/><path class="cls-1" d="M435,275.78h91.1A15.91,15.91,0,0,1,542,291.69v0a15.91,15.91,0,0,1-15.91,15.91H435a11.74,11.74,0,0,1-11.74-11.74v-8.34A11.74,11.74,0,0,1,435,275.78Z"/><path class="cls-1" d="M89.8,55.07H198.14a1.46,1.46,0,0,1,1.46,1.46v15A1.46,1.46,0,0,1,198.14,73H89.8A8.95,8.95,0,0,1,80.85,64v0a8.95,8.95,0,0,1,8.95-8.95Z"/><rect class="cls-1" x="404.44" y="339.44" width="118.75" height="9.92" rx="4.96"/><ellipse class="cls-1" cx="16.53" cy="111.74" rx="15.83" ry="15.91"/><ellipse class="cls-1" cx="591.47" cy="289.7" rx="15.83" ry="15.91"/><path class="cls-3" d="M336.19,275a45.11,45.11,0,0,1,75.72-33.39V224.26l-233.7.29v78.26A14.19,14.19,0,0,0,192.37,317H364.42A45.39,45.39,0,0,1,336.19,275Zm0,0"/><path class="cls-4" d="M339.91,275a41.44,41.44,0,1,0,41.44-41.63A41.53,41.53,0,0,0,339.91,275Zm0,0"/><path class="cls-3" d="M413.68,209.82V176.45a14.21,14.21,0,0,0-14.16-14.23H193.93a14.2,14.2,0,0,0-14.16,14.23v33.37Zm0,0"/><path class="cls-5" d="M213.67,162.22H193.93a14.2,14.2,0,0,0-14.16,14.23v33.37h19.74V176.45a14.2,14.2,0,0,1,14.16-14.23Zm0,0"/><path class="cls-4" d="M323.55,211.59h-15.8a1.77,1.77,0,0,1,0-3.53h15.8a1.76,1.76,0,0,1,1.52.88,1.77,1.77,0,0,1-1.52,2.65Zm0,0"/><path class="cls-4" d="M413.68,211.59a1.76,1.76,0,0,1-1.75-1.77V176.45A12.44,12.44,0,0,0,399.52,164H193.93a12.45,12.45,0,0,0-12.41,12.46v31.61H297.61a1.77,1.77,0,0,1,0,3.53H179.77a1.76,1.76,0,0,1-1.75-1.77V176.45a16,16,0,0,1,15.91-16H399.52a16,16,0,0,1,15.92,16v33.37a1.76,1.76,0,0,1-1.76,1.77Zm0,0"/><path class="cls-4" d="M182.36,314.63a1.71,1.71,0,0,1-1.24-.52,15.89,15.89,0,0,1-4.66-11.3V224.55a1.75,1.75,0,0,1,1.75-1.76l233.7-.29h0a1.76,1.76,0,0,1,1.76,1.76v17.32a1.76,1.76,0,1,1-3.51,0V226L180,226.31v76.5a12.41,12.41,0,0,0,3.63,8.81,1.77,1.77,0,0,1,.38,1.92,1.75,1.75,0,0,1-1.62,1.09Zm0,0"/><path class="cls-6" d="M446.44,325.19h-19c-.62,0-1.2-.77-1.52-2a8.72,8.72,0,0,1,0-4c.32-1.24.9-2,1.52-2h19c.63,0,1.21.76,1.52,2a8.45,8.45,0,0,1,0,4c-.31,1.23-.89,2-1.52,2Zm-32.76,0H161.33c-.62,0-1.2-.77-1.52-2a8.72,8.72,0,0,1,0-4c.32-1.24.9-2,1.52-2H413.68c.62,0,1.2.76,1.52,2a8.72,8.72,0,0,1,0,4c-.32,1.23-.9,2-1.52,2Zm-260.57,0H147c-.63,0-1.21-.77-1.52-2a8.72,8.72,0,0,1,0-4c.31-1.24.89-2,1.52-2h6.1c1,0,1.76,1.79,1.76,4s-.79,4-1.76,4Zm0,0"/><rect class="cls-7" x="145.29" y="122.18" width="307.52" height="198.84"/><path class="cls-2" d="M195.7,285.18H311.31v5.16H195.7Zm74.73-36h40.88v5.16H270.43Zm0,0"/><rect class="cls-8" x="270.11" y="261.19" width="40.88" height="5.16"/><rect class="cls-2" x="259.29" y="273.18" width="51.7" height="5.16"/><rect class="cls-8" x="195.7" y="297.18" width="94.86" height="5.16"/><path class="cls-2" d="M128.64,263.89a6.91,6.91,0,0,1-7.67-.84,6.39,6.39,0,0,1-2.43-4.71,7,7,0,0,1,1.56-5.13,6.34,6.34,0,0,1,4.7-2.45h.62a7,7,0,0,1,3.22,13.13Z"/><path class="cls-9" d="M422.68,145.51a4.92,4.92,0,0,0-5.32-4.47,5.05,5.05,0,0,0-3.3,1.76,4.76,4.76,0,0,0-1.1,3.57,5.1,5.1,0,0,0,1.78,3.31,4.51,4.51,0,0,0,3.1,1.17h.39a4.91,4.91,0,0,0,4.45-5.34Z"/><path class="cls-2" d="M420.37,150.77a5.44,5.44,0,0,1-6-.67,5,5,0,0,1-1.91-3.7,5.47,5.47,0,0,1,1.23-4,5,5,0,0,1,3.69-1.93h.49a5.42,5.42,0,0,1,5.43,5,5.48,5.48,0,0,1-2.9,5.35Z"/><path class="cls-2" d="M174.22,140.48a1,1,0,0,1-1.05-1v-6.8l-4.78,4.8a1.08,1.08,0,0,1-1.52-1.52l4.78-4.81h-6.78a1.05,1.05,0,0,1-.91-.53,1,1,0,0,1,0-1,1.05,1.05,0,0,1,.91-.53h6.78l-4.78-4.75a1.08,1.08,0,1,1,1.52-1.52l4.78,4.76v-6.81a1.06,1.06,0,0,1,.44-1.09,1,1,0,0,1,1.17,0,1.06,1.06,0,0,1,.44,1.09v6.81l4.83-4.81a1,1,0,0,1,.75-.35,1,1,0,0,1,.76.35,1,1,0,0,1,0,1.53l-4.78,4.8h6.77a1.06,1.06,0,0,1,0,2.11h-6.77l4.78,4.81a1.07,1.07,0,0,1-.48,1.8,1.06,1.06,0,0,1-1-.28l-4.83-4.81v6.8c.11.59-.47,1-1.05,1Z"/><path class="cls-2" d="M438.44,301.58H435v-3.41a1,1,0,0,0-.51-.89,1,1,0,0,0-1,0,1,1,0,0,0-.51.89v3.41h-3.4a1,1,0,0,0,0,2.06H433v3.41a1,1,0,0,0,1,1V308a1,1,0,0,0,.72-.29A1.05,1.05,0,0,0,435,307v-3.36h3.4a1,1,0,0,0,0-2.06Z"/><path class="cls-2" d="M446.44,197.73c0,4.19-2.83,7.49-6.32,7.49,3.5,0,6.32,3.35,6.32,7.48,0-4.19,2.82-7.48,6.31-7.48-3.5,0-6.31-3.36-6.31-7.49Z"/><path class="cls-2" d="M378.84,283.06,377,264.37a16.82,16.82,0,0,1-.08-1.73v-4.77a4.41,4.41,0,1,1,8.82,0v4.79c0,.57,0,1.14-.08,1.72L384,283.06a2.57,2.57,0,0,1-5.11,0Zm-1.56,9.3a4.18,4.18,0,1,1,4.18,4.19,4.19,4.19,0,0,1-4.18-4.19Zm0,0"/><path class="cls-4" d="M224.79,233.34a17.95,17.95,0,1,0,17.85,17.94,17.9,17.9,0,0,0-17.85-17.94Zm0,33.51a15.58,15.58,0,1,1,15.51-15.58,15.54,15.54,0,0,1-15.51,15.58Zm0,0"/><path class="cls-4" d="M227,249l-2.22-4.42L222.63,249l-4.88.76,3.53,3.43-.78,4.88,4.34-2.36,4.39,2.27-.88-4.85,3.53-3.49ZM215.84,273.1l-8.46,8.5a1.22,1.22,0,0,1-.86.36h-.26a1.2,1.2,0,0,1-.85-.76l-2.35-6.61-6.58-2.37a1.2,1.2,0,0,1-.76-.85,1.23,1.23,0,0,1,.32-1.1l8.47-8.51a1.18,1.18,0,0,1,1.6.06,1.2,1.2,0,0,1,.06,1.61l-7.09,7.17,5.35,1.89a1.19,1.19,0,0,1,.71.73l1.9,5.38,7.14-7.18a1.17,1.17,0,0,1,1.6.06,1.2,1.2,0,0,1,.06,1.61Zm38-1.79a1.16,1.16,0,0,1-.75.85l-6.58,2.37-2.36,6.61a1.17,1.17,0,0,1-.84.76L243,282a1.18,1.18,0,0,1-.84-.35l-8.46-8.5a1.18,1.18,0,0,1,1.66-1.67l7.14,7.18,1.9-5.38a1.17,1.17,0,0,1,.72-.72l5.35-1.91-7.14-7.18a1.18,1.18,0,0,1,1.66-1.67l8.46,8.51a1.15,1.15,0,0,1,.33,1Zm0,0"/></svg>